GIL04_fast2_RRA_states
nRows=5
nColumns=47

# SIMM Motion File Header:
name GIL04_fast2_RRA_states
datacolumns 47
datarows 5
otherdata 1
range 0.79583000000000048000 0.79783000000000048000
endheader
time	pelvis_tx	pelvis_ty	pelvis_tz	pelvis_tilt	pelvis_list	pelvis_rotation	hip_flexion_r	hip_adduction_r	hip_rotation_r	knee_angle_r	ankle_angle_r	subtalar_angle_r	mtp_angle_r	hip_flexion_l	hip_adduction_l	hip_rotation_l	knee_angle_l	ankle_angle_l	subtalar_angle_l	mtp_angle_l	lumbar_extension	lumbar_bending	lumbar_rotation	pelvis_tx_u	pelvis_ty_u	pelvis_tz_u	pelvis_tilt_u	pelvis_list_u	pelvis_rotation_u	hip_flexion_r_u	hip_adduction_r_u	hip_rotation_r_u	knee_angle_r_u	ankle_angle_r_u	subtalar_angle_r_u	mtp_angle_r_u	hip_flexion_l_u	hip_adduction_l_u	hip_rotation_l_u	knee_angle_l_u	ankle_angle_l_u	subtalar_angle_l_u	mtp_angle_l_u	lumbar_extension_u	lumbar_bending_u	lumbar_rotation_u
      0.79583000000000048000	      2.10364397846094820000	      0.75160539593986808000	     -0.21436777618308178000	     -5.97799326152829020000	     -2.03613717890865110000	      1.70162877073509940000	     24.78564846641960500000	     -0.24294452274947889000	     -0.04564746497217208500	    -52.10109052979010600000	     -1.43244804663023850000	     -0.00000000000022432960	     -0.00000000000054406241	      6.96636302209733850000	      2.92016878168308920000	     -5.97601701878642540000	     -7.31267058197169110000	      3.68673986625328750000	     -0.00000000000004192581	     -0.00000000000007356257	     -1.48769484856210220000	      2.16417002217381960000	      0.53306948008972366000	      1.12955011153344940000	      0.05615933895302445400	     -0.08410025194292496100	      1.15845192457704900000	    -28.12781995108115400000	     13.80970870629572500000	    130.34542721823010000000	     42.90183828133535800000	    138.55104992070093000000	    240.75678956584747000000	     91.63244606386577100000	     -0.00000000000033446400	     -0.00000000000102737089	   -162.14115665011172000000	    -23.03583842873594300000	     -7.29540156843103290000	    130.44481895483631000000	      3.01816919473294390000	     -0.00000000000018125447	     -0.00000000000003954957	    -15.16579344807237500000	     55.67056983929016700000	    -37.76343906364596100000
      0.79633000000000054000	      2.10420872906674550000	      0.75163295140889808000	     -0.21440972188223098000	     -5.97741204365235660000	     -2.05013990238008100000	      1.70861578711243920000	     24.85065677794594700000	     -0.22160778292972025000	      0.02345994845598089000	    -51.98033772787683700000	     -1.38673312880591770000	     -0.00000000000022449651	     -0.00000000000054457598	      6.88531454639948760000	      2.90872667349771600000	     -5.97957602635027910000	     -7.24751341061945450000	      3.68824700124963380000	     -0.00000000000004201454	     -0.00000000000007358424	     -1.49527779576510960000	      2.19186907729875860000	      0.51417442392037160000	      1.12945364340449190000	      0.05406181830491445900	     -0.08368137840024607300	      1.16661178282083360000	    -27.88342791067609700000	     14.13802167360305800000	    129.68788153398066000000	     42.44480594587586400000	    137.87464266820848000000	    242.25278830811334000000	     91.22694390540513600000	     -0.00000000000033268686	     -0.00000000000102868241	   -162.05296904882448000000	    -22.73307291496810100000	     -6.94122275756625400000	    130.18353706264540000000	      3.01092500624978320000	     -0.00000000000018201492	     -0.00000000000000509362	    -15.16572690195966000000	     55.12567889381346500000	    -37.81610112670804800000
      0.79683000000000048000	      2.10477343345737600000	      0.75165945704445747000	     -0.21445145642160102000	     -5.97682645352818920000	     -2.06402097833864180000	      1.71576646540269610000	     24.91533640337394600000	     -0.20050000933705853000	      0.09222322529048052100	    -51.85883937068327800000	     -1.34122137031455300000	     -0.00000000000022466313	     -0.00000000000054508954	      6.80430982459377450000	      2.89743521398742620000	     -5.98295881354757860000	     -7.18248737072984240000	      3.68975148005093970000	     -0.00000000000004210543	     -0.00000000000007359095	     -1.50286030423415200000	      2.21929575590971600000	      0.49525405571853098000	      1.12936529362377320000	      0.05196001795497171700	     -0.08325566617037547000	      1.17594899769798910000	    -27.64126542409619000000	     14.46437229856780600000	    129.03066905087323000000	     41.98601908404996400000	    137.17452179951417000000	    243.73901003330363000000	     90.81983680455080300000	     -0.00000000000033335409	     -0.00000000000102460452	   -161.96615247187805000000	    -22.43327659577811400000	     -6.59047592924724770000	    129.92030150563247000000	      3.00781573751070090000	     -0.00000000000020200994	      0.00000000000003362788	    -15.16403301001221000000	     54.58111783049230300000	    -37.86470267800643100000
      0.79733000000000054000	      2.10533809573067290000	      0.75168491071889276000	     -0.21449297641032036000	     -5.97623590009765500000	     -2.07778154699797350000	      1.72307981884975360000	     24.97968751391041300000	     -0.17962203401573618000	      0.16063051886637095000	    -51.73660036251865800000	     -1.29591354981680620000	     -0.00000000000022482987	     -0.00000000000054560180	      6.72334816621823080000	      2.88629288963503280000	     -5.98616708364361920000	     -7.11759342732538600000	      3.69125551367322750000	     -0.00000000000004220671	     -0.00000000000007355750	     -1.51044155097496490000	      2.24645026469104630000	      0.47631041089553067000	      1.12928516587485150000	      0.04985397242215097000	     -0.08282312594225883800	      1.18645359492020660000	    -27.40137848950489600000	     14.78867911538585600000	    128.37385876961557000000	     41.52561195681725100000	    136.45069326387903000000	    245.21536189816692000000	     90.41118330594312600000	     -0.00000000000033433625	     -0.00000000000102398625	   -161.88070248825838000000	    -22.13652423331104300000	     -6.24321728956709250000	    129.65515800723480000000	      3.00888872566164260000	     -0.00000000000019011031	      0.00000000000005996228	    -15.16067238233504700000	     54.03697490992012600000	    -37.90916620724531300000
      0.79783000000000048000	      2.10590272000999110000	      0.75170931031455468000	     -0.21453427841208297000	     -5.97563980765132550000	     -2.09142274257935680000	      1.73055479086369560000	     25.04371034149801600000	     -0.15897464618526375000	      0.22866996927322775000	    -51.61362566893225100000	     -1.25081043447768580000	     -0.00000000000022499726	     -0.00000000000054611309	      6.64242889666087510000	      2.87529817107036980000	     -5.98920262280263670000	     -7.05283252831560150000	      3.69276106232233840000	     -0.00000000000004230414	     -0.00000000000007352827	     -1.51802069220730450000	      2.27333281394795290000	      0.45734559134839747000	      1.12921335875366610000	      0.04774371554377380300	     -0.08238377357628805200	      1.19811193529645070000	    -27.16380649051902200000	     15.11086371234076400000	    127.71752528771067000000	     41.06371266987238000000	    135.70316992654085000000	    246.68175109773432000000	     90.00104559628763900000	     -0.00000000000033456246	     -0.00000000000102178627	   -161.79660546413137000000	    -21.84288447163863400000	     -5.89951038519435930000	    129.38812221336383000000	      3.01412512838499950000	     -0.00000000000019836015	      0.00000000000001938607	    -15.15560533796893200000	     53.49333158336673900000	    -37.94941875315221600000
